<svg width="115" height="27" viewBox="0 0 107 20" fill="none" xmlns="http://www.w3.org/2000/svg"><path d="M26.3669 11.8792C27.2914 11.3222 28.4615 11.9989 28.4615 13.0905V17.5213C28.4615 18.558 27.3959 19.2394 26.4751 18.7914L22.4067 16.8118C21.4075 16.3256 21.3455 14.9046 22.2985 14.3303L26.3669 11.8792Z" fill="#FFAF34"></path><path d="M10.6331 11.8792C9.70862 11.3222 8.53857 11.9989 8.53857 13.0905V17.5213C8.53857 18.558 9.60418 19.2394 10.5248 18.7914L14.5932 16.8118C15.5925 16.3256 15.6545 14.9046 14.7015 14.3303L10.6331 11.8792Z" fill="#FFAF34"></path><path d="M17.7967 13.5497C18.2327 13.7977 18.7673 13.7977 19.2034 13.5497L28.66 8.17121C29.6086 7.63157 30.7865 8.31703 30.7865 9.4087V18.5742C30.7865 19.6901 32.0117 20.3722 32.9597 19.7839L36.3271 17.6942C36.7454 17.4346 37 16.9771 37 16.4844V4.17837C37 3.67475 36.734 3.20851 36.3005 2.9525L31.6362 0.197751C31.1976 -0.0613396 30.6539 -0.0661515 30.2108 0.185166L19.2019 6.42911C18.7665 6.676 18.2335 6.676 17.7981 6.42911L6.78927 0.185166C6.34612 -0.0661515 5.80248 -0.0613396 5.36382 0.197751L0.699558 2.9525C0.266018 3.20851 0 3.67475 0 4.17837V16.4844C0 16.9771 0.254511 17.4346 0.672892 17.6942L4.0403 19.7839C4.98832 20.3722 6.21353 19.6901 6.21353 18.5742V9.4087C6.21353 8.31703 7.39138 7.63157 8.34005 8.17121L17.7967 13.5497Z" fill="#FFAF34"></path><path d="M106.51 2.22656V17.5416H103.803V2.22656H106.51Z" fill="white"></path><path d="M95.0166 17.7734C94.2887 17.7734 93.6331 17.6438 93.0498 17.3846C92.4715 17.1204 92.0129 16.7315 91.6739 16.218C91.3399 15.7045 91.1729 15.0714 91.1729 14.3186C91.1729 13.6705 91.2925 13.1346 91.5318 12.7108C91.7711 12.287 92.0976 11.948 92.5114 11.6938C92.9252 11.4395 93.3913 11.2476 93.9098 11.118C94.4333 10.9834 94.9742 10.8861 95.5326 10.8263C96.2056 10.7565 96.7515 10.6942 97.1703 10.6394C97.589 10.5795 97.8931 10.4898 98.0826 10.3702C98.277 10.2455 98.3742 10.0536 98.3742 9.79435V9.74948C98.3742 9.18614 98.2072 8.74992 97.8732 8.44082C97.5392 8.13173 97.0581 7.97718 96.4299 7.97718C95.7669 7.97718 95.2409 8.12176 94.8521 8.41091C94.4682 8.70006 94.2089 9.04156 94.0743 9.4354L91.5468 9.07646C91.7462 8.37851 92.0752 7.79522 92.5339 7.32659C92.9925 6.85298 93.5534 6.49902 94.2164 6.26471C94.8795 6.02541 95.6123 5.90576 96.415 5.90576C96.9683 5.90576 97.5192 5.97057 98.0676 6.10019C98.616 6.22981 99.117 6.44418 99.5707 6.7433C100.024 7.03744 100.388 7.43876 100.663 7.94727C100.942 8.45578 101.081 9.09141 101.081 9.85418V17.5416H98.4789V15.9638H98.3892C98.2247 16.2828 97.9928 16.5819 97.6937 16.8611C97.3996 17.1353 97.0282 17.3572 96.5795 17.5267C96.1358 17.6912 95.6148 17.7734 95.0166 17.7734ZM95.7195 15.7843C96.2629 15.7843 96.734 15.6771 97.1329 15.4627C97.5317 15.2434 97.8383 14.9542 98.0527 14.5953C98.272 14.2363 98.3817 13.845 98.3817 13.4212V12.0677C98.297 12.1375 98.1524 12.2023 97.948 12.2621C97.7486 12.3219 97.5242 12.3743 97.2749 12.4191C97.0257 12.464 96.7789 12.5039 96.5346 12.5388C96.2903 12.5737 96.0785 12.6036 95.899 12.6285C95.4952 12.6834 95.1337 12.7731 94.8147 12.8977C94.4956 13.0224 94.2438 13.1969 94.0594 13.4212C93.8749 13.6406 93.7827 13.9247 93.7827 14.2737C93.7827 14.7722 93.9647 15.1486 94.3286 15.4029C94.6925 15.6571 95.1562 15.7843 95.7195 15.7843Z" fill="white"></path><path d="M82.7097 17.7435C81.8073 17.7435 80.9997 17.5117 80.2868 17.0481C79.5739 16.5844 79.0105 15.9114 78.5968 15.029C78.183 14.1466 77.9761 13.0747 77.9761 11.8134C77.9761 10.5372 78.1855 9.46034 78.6042 8.58291C79.028 7.7005 79.5988 7.03495 80.3167 6.58627C81.0346 6.1326 81.8348 5.90577 82.7172 5.90577C83.3902 5.90577 83.9436 6.02043 84.3773 6.24976C84.811 6.4741 85.155 6.7458 85.4093 7.06487C85.6635 7.37894 85.8604 7.67557 86 7.95476H86.1122V2.22656H88.8267V17.5416H86.1645V15.7319H86C85.8604 16.0111 85.6585 16.3077 85.3943 16.6218C85.1301 16.9309 84.7811 17.1951 84.3474 17.4145C83.9137 17.6339 83.3678 17.7435 82.7097 17.7435ZM83.465 15.5226C84.0383 15.5226 84.5269 15.368 84.9307 15.0589C85.3345 14.7448 85.6411 14.3086 85.8505 13.7502C86.0599 13.1919 86.1645 12.5413 86.1645 11.7985C86.1645 11.0557 86.0599 10.4101 85.8505 9.86166C85.6461 9.31327 85.342 8.88702 84.9381 8.58291C84.5393 8.2788 84.0483 8.12675 83.465 8.12675C82.8617 8.12675 82.3582 8.28379 81.9544 8.59787C81.5506 8.91195 81.2465 9.34567 81.0421 9.89905C80.8377 10.4524 80.7355 11.0856 80.7355 11.7985C80.7355 12.5164 80.8377 13.157 81.0421 13.7203C81.2515 14.2787 81.5581 14.7199 81.9619 15.044C82.3707 15.363 82.8717 15.5226 83.465 15.5226Z" fill="white"></path><path d="M71.0493 17.766C69.8977 17.766 68.9031 17.5267 68.0656 17.0481C67.233 16.5645 66.5924 15.8815 66.1437 14.9991C65.695 14.1117 65.4707 13.0672 65.4707 11.8658C65.4707 10.6842 65.695 9.64728 66.1437 8.7549C66.5974 7.85753 67.2305 7.15958 68.0432 6.66105C68.8558 6.15752 69.8105 5.90576 70.9073 5.90576C71.6152 5.90576 72.2832 6.02042 72.9114 6.24975C73.5445 6.47409 74.1029 6.82307 74.5865 7.29668C75.075 7.77029 75.4589 8.37352 75.7381 9.10637C76.0173 9.83423 76.1568 10.7017 76.1568 11.7087V12.5388H66.742V10.7142H73.562C73.557 10.1957 73.4448 9.73453 73.2255 9.33071C73.0061 8.92191 72.6995 8.60035 72.3056 8.36604C71.9168 8.13173 71.4631 8.01457 70.9446 8.01457C70.3913 8.01457 69.9052 8.14918 69.4864 8.41839C69.0676 8.68261 68.7411 9.03159 68.5068 9.46532C68.2775 9.89406 68.1603 10.3652 68.1553 10.8787V12.4715C68.1553 13.1395 68.2775 13.7129 68.5217 14.1915C68.766 14.6651 69.1075 15.029 69.5462 15.2832C69.985 15.5325 70.4985 15.6572 71.0867 15.6572C71.4806 15.6572 71.837 15.6023 72.1561 15.4926C72.4752 15.378 72.7518 15.211 72.9862 14.9916C73.2205 14.7722 73.3974 14.5005 73.5171 14.1765L76.0447 14.4607C75.8851 15.1287 75.581 15.712 75.1324 16.2105C74.6887 16.7041 74.1203 17.088 73.4274 17.3621C72.7344 17.6314 71.9417 17.766 71.0493 17.766Z" fill="white"></path><path d="M47 2.22656H50.395L54.9417 13.324H55.1212L59.6678 2.22656H63.0629V17.5416H60.4007V7.02H60.2586L56.026 17.4968H54.0369L49.8043 6.99756H49.6622V17.5416H47V2.22656Z" fill="white"></path></svg>